<?xml version="1.0" standalone="no"?>
<!DOCTYPE svg PUBLIC "-//W3C//DTD SVG 20010904//EN"
 "http://www.w3.org/TR/2001/REC-SVG-20010904/DTD/svg10.dtd">
<svg version="1.0" xmlns="http://www.w3.org/2000/svg"
 width="380.000000pt" height="380.000000pt" viewBox="0 0 380.000000 380.000000"
 preserveAspectRatio="xMidYMid meet">
<metadata>
Created by potrace 1.11, written by Peter Selinger 2001-2013
</metadata>
<g transform="translate(0.000000,380.000000) scale(0.100000,-0.100000)"
fill="#000000" stroke="none">
<path d="M1707 3684 c-1 -1 -36 -4 -77 -7 -41 -4 -86 -9 -100 -12 -14 -3 -45
-8 -70 -11 -25 -3 -48 -8 -51 -10 -3 -2 -21 -6 -40 -9 -69 -12 -247 -77 -359
-132 -322 -156 -581 -397 -766 -709 -29 -50 -63 -113 -74 -140 -12 -27 -27
-62 -35 -79 -38 -87 -87 -257 -110 -380 -20 -114 -27 -377 -13 -515 19 -179
77 -377 165 -560 178 -371 472 -666 838 -841 163 -78 350 -137 485 -154 25 -3
72 -10 105 -14 61 -9 352 -7 415 3 19 3 53 8 75 11 78 12 271 67 360 102 159
64 353 178 475 279 80 67 224 217 286 299 205 269 335 604 359 921 13 172 11
163 56 207 55 54 101 127 128 202 119 334 -90 691 -440 749 -31 6 -45 18 -101
94 -175 233 -447 446 -713 559 -229 97 -441 142 -699 147 -53 1 -98 1 -99 0z
m278 -389 c50 -7 110 -18 135 -24 149 -34 347 -123 480 -215 73 -51 274 -236
284 -263 3 -8 -18 -38 -52 -72 -185 -186 -214 -486 -69 -704 79 -119 219 -212
362 -240 83 -16 84 -19 60 -140 -59 -300 -199 -558 -414 -765 -190 -184 -460
-325 -700 -367 -19 -3 -37 -7 -40 -9 -12 -7 -149 -19 -226 -19 -253 -1 -497
62 -710 184 -327 187 -558 482 -668 854 -51 171 -65 453 -31 610 2 11 6 31 8
45 16 101 81 284 139 389 219 404 632 689 1067 737 30 4 56 8 58 9 10 8 241 1
317 -10z"/>
<path d="M585 2150 c-21 -11 -31 -23 -33 -45 -6 -50 27 -165 76 -264 90 -185
266 -323 453 -355 96 -16 224 -10 269 14 8 4 19 8 23 8 17 0 75 28 134 65 141
88 265 270 300 442 20 96 14 130 -24 141 -16 4 -284 8 -598 8 -490 1 -574 -1
-600 -14z"/>
</g>
</svg>
